<svg xmlns="http://www.w3.org/2000/svg" viewBox="0 0 512 512">
  <rect width="512" height="512" fill="#FF9800" rx="100" ry="100"/>
  <path d="M375.3 328.8c-10.3 10.3-27 10.3-37.3 0L246.5 237.3l-28.3 28.3 91.5 91.5c10.3 10.3 10.3 27 0 37.3l-37.3 37.3c-10.3 10.3-27 10.3-37.3 0L108.8 305.5c-20.6-20.6-20.6-54 0-74.6l37.3-37.3c10.3-10.3 27-10.3 37.3 0l28.3 28.3 91.5-91.5c-4.2-12.2-2.1-26.2 6.8-35.1l54.9-54.9c22.7-22.7 59.4-22.7 82 0l21.2 21.2c22.7 22.7 22.7 59.4 0 82l-55.9 55.9c-8.8 8.8-22.4 10.9-34.5 6.8l-91.8 91.8 89.2 89.2c10.3 10.3 10.3 27 0 37.3l-37.3 37.3z" fill="#ffffff"/>
  <path d="M152.9 161.4c-11.6-11.6-30.8-11.2-41.9-.8l-72.2 67.5c-5.9 5.5-5.9 14.8-.1 20.4l41.2 39.5c5.6 5.4 14.7 5.1 19.9-.7l72.2-82c9.5-10.8 9.3-27.4-1.9-38.6l-17.2-5.3z" fill="#ffffff"/>
</svg>
